<svg id="Layer_1" data-name="Layer 1" xmlns="http://www.w3.org/2000/svg" viewBox="0 0 244.7 39.99"><defs><style>.cls-1{fill:#fff;}.cls-2{opacity:0.99;}</style></defs><title>EventImpress Logo 2</title><path class="cls-1" d="M327.08,431.89v2.17H189.83v-2H191a10.22,10.22,0,0,0,2-.14Z" transform="translate(-175.29 -400.95)"/><rect class="cls-1" x="177.9" y="30.94" width="66.8" height="2.17"/><g class="cls-2"><path class="cls-1" d="M197.56,425.58a22.45,22.45,0,0,1-2.41,4.67,3.29,3.29,0,0,1-2.18,1.64,10.22,10.22,0,0,1-2,.14h-4.15c-2.23,0-3.21-.36-3.21-3.91V418h4.91c3.21,0,3.57.51,4.15,4.17h1.38V411.72H192.7c-.54,3.45-.76,4.21-4.11,4.21h-5V404.71c0-1.47.09-1.62,1.47-1.62h4.24c2.68,0,3.71.35,4.42,2a18.1,18.1,0,0,1,1.34,3.86l1.34-.26c-.18-2.69-.36-6.5-.4-7.77-.54.05-2.28.11-6.48.11H175.92v1.42c3.34.35,3.84.61,3.84,5.13v20.05c0,4.16-.32,4.62-4.47,5v1.42H197c.13-.46.34-1.25.56-2.17.53-2.14,1.17-5,1.36-5.91Z" transform="translate(-175.29 -400.95)"/><path class="cls-1" d="M213,410.46v1.21c2.94.31,3.08.8,2.32,3-1,2.85-2.45,6.51-4.06,10.48-1.25-3.12-3.13-7.85-4.24-10.93-.72-1.92-.63-2.23,1.83-2.54v-1.21H199.7v1.21c2.32.35,2.68.62,3.71,3.21,2.1,5.22,4.28,10.53,6.16,15.67h1.29c2.32-6,4.87-12,6.34-15.54,1.16-2.67,1.47-3,3.88-3.34v-1.21Z" transform="translate(-175.29 -400.95)"/><path class="cls-1" d="M232.33,427.51c-3.17,0-6.83-2.46-6.7-8.44,5.31-.17,11-.58,11.92-.75.71-.18.85-.58.89-1.48a7,7,0,0,0-6.83-6.91,9.18,9.18,0,0,0-6.65,3.25,11.48,11.48,0,0,0-2.9,7.81c0,5.14,3.3,9.6,8.75,9.6,1.43,0,4.55-.76,7.41-4.33l-.72-1A7.52,7.52,0,0,1,232.33,427.51Zm-1.79-15.89a4.15,4.15,0,0,1,4,4.51c0,.67-.27.89-1.07.89-2.64.14-5.14.14-7.63.14C226.48,413.54,228.49,411.62,230.54,411.62Z" transform="translate(-175.29 -400.95)"/><path class="cls-1" d="M260.31,425.37v-8.48c0-4.33-2.23-7-5.8-7a6.86,6.86,0,0,0-3.71,1.33c-1.16.76-2.14,1.43-3,2.06v-3.53a25.42,25.42,0,0,1-6.25,1.79v1.16c2.41.4,2.72.53,2.72,3.43v9.2c0,2.94-.27,3.12-3.21,3.43v1.25h9.64V428.8c-2.63-.26-2.9-.35-2.9-3.43V414.92a7.78,7.78,0,0,1,4.95-2.32c2.95,0,4.06,2.1,4.06,5.22v7.37c0,3-.26,3.35-2.85,3.61v1.25h9.24V428.8C260.58,428.54,260.31,428.4,260.31,425.37Z" transform="translate(-175.29 -400.95)"/><path class="cls-1" d="M276.78,427.29a6.44,6.44,0,0,1-2.73.71c-1.16,0-2.58-.67-2.58-4.28V412.29h4.82a1.39,1.39,0,0,0,.26-1.83h-5.08c0-2.14,0-4.73.13-6.61l-.67-.08c-.85.89-2.14,2.05-3,2.94v3.75h-2.05l-1.21,1.3.18.53h3.08v13c0,3.57,1.52,5.31,4.37,5.31a4.52,4.52,0,0,0,1.92-.58l2.95-1.56Z" transform="translate(-175.29 -400.95)"/><path class="cls-1" d="M291.06,402.29V401h-12v1.25c3.66.4,4,.58,4,4.42v17.72c0,3.79-.35,4-4,4.37v1.25h12V428.8c-3.71-.4-4.06-.53-4.06-4.37V406.71C287,402.87,287.35,402.69,291.06,402.29Z" transform="translate(-175.29 -400.95)"/><path class="cls-1" d="M324.26,425.41V416.8c0-4.38-2.14-6.87-5.62-6.87a6.78,6.78,0,0,0-3.53,1.16c-1.11.75-2.27,1.51-3.52,2.5a5.2,5.2,0,0,0-4.87-3.66,6,6,0,0,0-3.52,1.16,29.57,29.57,0,0,0-3.31,2.32v-3.62a24.23,24.23,0,0,1-6.2,1.79v1.11c2.5.45,2.68.63,2.68,3.48v9.24c0,2.95-.27,3.13-3.21,3.39v1.25h9.59V428.8c-2.54-.26-2.86-.44-2.86-3.39V414.92c1.39-1.11,3.13-2.32,4.91-2.32,2.73,0,3.75,1.83,3.75,5.14v7.67c0,2.95-.4,3.13-3.17,3.39v1.25h9.56V428.8c-2.46-.26-2.86-.49-2.86-3.3v-8.66c0-.84-.09-1.38-.13-1.92,1.69-1.38,3.25-2.32,4.95-2.32,2.77,0,3.84,2,3.84,5.18v7.45c0,3.13-.31,3.31-2.95,3.57v1.25h9.29V428.8C324.53,428.54,324.26,428.4,324.26,425.41Z" transform="translate(-175.29 -400.95)"/><path class="cls-1" d="M338.81,430.59c5.85-1.07,11.2-5.36,11.2-12.14,0-4.42-3-8.52-7.9-8.52a6.34,6.34,0,0,0-2.59.89l-3.88,2.23v-3.57a28.64,28.64,0,0,1-6.47,1.92v1.2c2.86.4,2.95.58,2.95,3.26v20.31c0,3-.36,3.21-3.26,3.52v1.25h10.58v-1.25c-3.44-.31-3.8-.58-3.8-3.88v-6A7.46,7.46,0,0,0,338.81,430.59Zm-3.17-16.07a9,9,0,0,1,4.64-1.92c3.17,0,6,2.73,6,7.55,0,5-2.5,8.25-6.38,8.25a6.46,6.46,0,0,1-4.24-1.74Z" transform="translate(-175.29 -400.95)"/><path class="cls-1" d="M365.32,409.93c-2.23,0-4.11,2.45-5.67,4.77v-4.91a24.68,24.68,0,0,1-6.29,1.83v1.12c2.59.31,2.77.44,2.77,3.39v9.28c0,2.9-.27,3.13-3.08,3.39v1.25h10.26V428.8c-3.44-.26-3.66-.49-3.66-3.43V417c1-2.28,2.64-3.66,3.57-3.66a2.8,2.8,0,0,1,2,1.11.87.87,0,0,0,1.16.09,3,3,0,0,0,1.52-2.45A2.3,2.3,0,0,0,365.32,409.93Z" transform="translate(-175.29 -400.95)"/><path class="cls-1" d="M379.73,427.51c-3.16,0-6.82-2.46-6.69-8.44,5.31-.17,11-.58,11.92-.75.71-.18.84-.58.89-1.48a7,7,0,0,0-6.83-6.91,9.17,9.17,0,0,0-6.65,3.25,11.48,11.48,0,0,0-2.9,7.81c0,5.14,3.3,9.6,8.75,9.6,1.43,0,4.55-.76,7.41-4.33l-.72-1A7.55,7.55,0,0,1,379.73,427.51ZM378,411.62a4.15,4.15,0,0,1,4,4.51c0,.67-.27.89-1.07.89-2.64.14-5.14.14-7.64.14C373.89,413.54,375.9,411.62,378,411.62Z" transform="translate(-175.29 -400.95)"/><path class="cls-1" d="M396.51,418.27c-2.49-1.16-3.79-2-3.79-4a2.71,2.71,0,0,1,2.77-2.9c2.72,0,3.88,1.78,4.68,4.37l1.3-.31c-.22-1.07-.54-3.88-.67-4.95a22.43,22.43,0,0,0-4.29-.58c-4.19,0-7,2.49-7,5.75s2.55,4.64,5.67,6.16c2.37,1.16,3.57,2.19,3.57,4.2a3,3,0,0,1-3.12,3c-3.13,0-4.69-2.32-5.49-5.18l-1.3.23c.18,1.47.58,3.93.81,5.22a11.58,11.58,0,0,0,5.31,1.25c3.52,0,7.27-2.1,7.27-6.2C402.27,421.44,400.35,420.1,396.51,418.27Z" transform="translate(-175.29 -400.95)"/><path class="cls-1" d="M413.16,418.27c-2.5-1.16-3.79-2-3.79-4a2.7,2.7,0,0,1,2.76-2.9c2.73,0,3.89,1.78,4.69,4.37l1.29-.31c-.22-1.07-.53-3.88-.66-4.95a22.56,22.56,0,0,0-4.29-.58c-4.2,0-7,2.49-7,5.75s2.54,4.64,5.67,6.16c2.36,1.16,3.57,2.19,3.57,4.2a3,3,0,0,1-3.13,3c-3.12,0-4.68-2.32-5.49-5.18l-1.29.23c.18,1.47.58,3.93.8,5.22a11.62,11.62,0,0,0,5.31,1.25c3.53,0,7.28-2.1,7.28-6.2C418.92,421.44,417,420.1,413.16,418.27Z" transform="translate(-175.29 -400.95)"/></g></svg>