<svg id="Layer_1" data-name="Layer 1" xmlns="http://www.w3.org/2000/svg" xmlns:xlink="http://www.w3.org/1999/xlink" viewBox="0 0 96.77 214.84"><defs><style>.cls-1,.cls-4{fill:none;}.cls-2{font-size:184px;}.cls-2,.cls-6{fill:#fff;}.cls-2,.cls-5{font-family:Century;}.cls-3{clip-path:url(#clip-path);}.cls-4{stroke:#231f20;stroke-miterlimit:10;stroke-width:0.25px;}.cls-5{font-size:134px;fill:#aed8e6;}.cls-7{fill:#00aeef;}</style><clipPath id="clip-path" transform="translate(-143.11 -120.13)"><rect class="cls-1" width="370.06" height="376.21"/></clipPath></defs><title>EventImpress Lightblue</title><text class="cls-2" transform="translate(11.86 158.42)">I</text><g class="cls-3"><path class="cls-4" d="M161.8,152.42h10.42q6.74,0,9.25,2.06,1.62,1.35,1.62,7.1V262.21c0,4-.6,6.62-1.8,7.81s-3.83,1.8-7.9,1.8H161.8v6.74h61.27v-6.74H211.3q-5.66,0-7.82-2.07c-1.07-1-1.61-3.53-1.61-7.54V161.58q0-5.66,1.84-7.41t8.85-1.75h10.51v-6.74H161.8Z" transform="translate(-143.11 -120.13)"/></g><text class="cls-5" transform="translate(0 141.54)">E</text><g class="cls-3"><path class="cls-4" d="M151.88,169.81h7.92a6.27,6.27,0,0,1,4.31,1.24,4.87,4.87,0,0,1,1.38,3.8v76.68a4.82,4.82,0,0,1-1.57,3.89q-1.57,1.35-5.43,1.35h-6.61v4.9h79.76l1.63-36.05h-4.71q-3.72,31.14-28.09,31.15h-15c-2.18,0-3.73-.37-4.67-1.12a3.83,3.83,0,0,1-1.4-3.2V214H187q7.24,0,11.45,4.81T203,234.72h4.51V189.9H203q-.33,9.87-4.47,14.65a13.6,13.6,0,0,1-10.8,4.78h-8.28V174.85a5.39,5.39,0,0,1,1.17-3.8,4.55,4.55,0,0,1,3.46-1.24H203q9.09,0,14.74,6.15T226,197.55h4.39l-1.84-32.65H151.88Z" transform="translate(-143.11 -120.13)"/></g><polygon class="cls-6" points="39.31 43.72 59.4 43.72 59.4 50.74 39.33 50.74 39.31 43.72"/><path class="cls-6" d="M183.09,172.53v0Z" transform="translate(-143.11 -120.13)"/><line class="cls-4" x1="39.98" y1="43.45" x2="39.98" y2="52.4"/><path class="cls-7" d="M201.87,171.57v0Z" transform="translate(-143.11 -120.13)"/><line class="cls-4" x1="58.75" y1="43.45" x2="58.75" y2="51.44"/><polygon class="cls-6" points="39.23 133.16 59.4 133.16 59.4 142.61 39.25 142.61 39.23 133.16"/><path class="cls-6" d="M183.09,263.21v0Z" transform="translate(-143.11 -120.13)"/><line class="cls-4" x1="39.98" y1="143.07" x2="39.98" y2="131.21"/><path class="cls-6" d="M201.87,264.21v0Z" transform="translate(-143.11 -120.13)"/><line class="cls-4" x1="58.75" y1="144.07" x2="58.75" y2="126.4"/></svg>